<svg width="24" height="24" viewBox="0 0 24 24" fill="none" xmlns="http://www.w3.org/2000/svg">
<path d="M15.5353 4.92991L12.7069 2.10149C12.3164 1.71096 11.6832 1.71096 11.2927 2.10149L8.46428 4.92991C8.07376 5.32044 8.07376 5.9536 8.46428 6.34413L11.2927 9.17255C11.6832 9.56308 12.3164 9.56308 12.7069 9.17255L15.5353 6.34413C15.9259 5.9536 15.9259 5.32044 15.5353 4.92991Z" fill="#8F919F"/>
<path d="M9.17158 11.2932L6.34315 8.46477C5.95263 8.07424 5.31946 8.07424 4.92894 8.46477L2.10051 11.2932C1.70999 11.6837 1.70999 12.3169 2.10051 12.7074L4.92894 15.5358C5.31946 15.9264 5.95263 15.9264 6.34315 15.5358L9.17158 12.7074C9.5621 12.3169 9.5621 11.6837 9.17158 11.2932Z" fill="#8F919F"/>
<path d="M21.8991 11.2932L19.0707 8.46477C18.6802 8.07424 18.047 8.07424 17.6565 8.46477L14.828 11.2932C14.4375 11.6837 14.4375 12.3169 14.828 12.7074L17.6565 15.5358C18.047 15.9264 18.6802 15.9264 19.0707 15.5358L21.8991 12.7074C22.2896 12.3169 22.2896 11.6837 21.8991 11.2932Z" fill="#8F919F"/>
<path d="M15.5353 17.6565L12.7069 14.828C12.3164 14.4375 11.6832 14.4375 11.2927 14.828L8.46428 17.6565C8.07376 18.047 8.07376 18.6802 8.46428 19.0707L11.2927 21.8991C11.6832 22.2896 12.3164 22.2896 12.7069 21.8991L15.5353 19.0707C15.9259 18.6802 15.9259 18.047 15.5353 17.6565Z" fill="#8F919F"/>
</svg>
