<svg width="20" height="20" viewBox="0 0 20 20" fill="none" xmlns="http://www.w3.org/2000/svg">
    <path fill-rule="evenodd" clip-rule="evenodd"
        d="M14.334 0.75H5.665C2.644 0.75 0.75 2.889 0.75 5.916V14.084C0.75 17.111 2.635 19.25 5.665 19.25H14.333C17.364 19.25 19.25 17.111 19.25 14.084V5.916C19.25 2.889 17.364 0.75 14.334 0.75Z"
        stroke="#464962" stroke-width="1.5" stroke-linecap="round" stroke-linejoin="round" />
    <path fill-rule="evenodd" clip-rule="evenodd"
        d="M8.68886 10.0004C8.68886 11.0234 7.85986 11.8524 6.83686 11.8524C5.81386 11.8524 4.98486 11.0234 4.98486 10.0004C4.98486 8.97744 5.81386 8.14844 6.83686 8.14844H6.83986C7.86086 8.14944 8.68886 8.97844 8.68886 10.0004Z"
        stroke="#464962" stroke-width="1.6" stroke-linecap="round" stroke-linejoin="round" />
    <path d="M8.69189 10H15.0099V11.852" stroke="#464962" stroke-width="1.6" stroke-linecap="round"
        stroke-linejoin="round" />
    <path d="M12.1816 11.852V10" stroke="#464962" stroke-width="1.5" stroke-linecap="round" stroke-linejoin="round" />
</svg>