<svg width="32" height="33" viewBox="0 0 32 33" fill="none" xmlns="http://www.w3.org/2000/svg">
<g clip-path="url(#clip0_149_12979)">
<path d="M31.688 16.8683C31.688 15.7807 31.5998 14.6872 31.4117 13.6172H16.32V19.7785H24.9623C24.6037 21.7656 23.4514 23.5235 21.7641 24.6405V28.6383H26.9201C29.9478 25.8516 31.688 21.7362 31.688 16.8683Z" fill="#4285F4"/>
<path d="M16.32 32.5009C20.6352 32.5009 24.2744 31.0841 26.9259 28.6384L21.7699 24.6406C20.3354 25.6165 18.4835 26.1691 16.3259 26.1691C12.1517 26.1691 8.61246 23.353 7.34257 19.5669H2.02197V23.6882C4.73812 29.0911 10.2704 32.5009 16.32 32.5009Z" fill="#34A853"/>
<path d="M7.33673 19.5671C6.66651 17.58 6.66651 15.4282 7.33673 13.4411V9.31982H2.02201C-0.247327 13.8409 -0.247327 19.1673 2.02201 23.6884L7.33673 19.5671Z" fill="#FBBC04"/>
<path d="M16.32 6.83288C18.6011 6.79761 20.8057 7.65596 22.4578 9.23156L27.0258 4.66349C24.1333 1.94734 20.2942 0.454045 16.32 0.501078C10.2704 0.501078 4.73812 3.91096 2.02197 9.31974L7.33669 13.441C8.6007 9.64897 12.1458 6.83288 16.32 6.83288Z" fill="#EA4335"/>
</g>
<defs>
<clipPath id="clip0_149_12979">
<rect width="32" height="32" fill="white" transform="translate(0 0.5)"/>
</clipPath>
</defs>
</svg>
