<svg width="44" height="44" viewBox="0 0 44 44" fill="none" xmlns="http://www.w3.org/2000/svg">
    <circle cx="22" cy="22" r="22" fill="#6D79E8" />
    <g clip-path="url(#clip0_1386_23683)">
        <path
            d="M19.6724 24.0443C19.6924 24.0836 19.7035 24.1253 19.6991 24.1692C19.6969 24.2016 19.6902 24.234 19.6724 24.2618C19.6702 24.271 19.6658 24.2803 19.6591 24.2895C19.6347 24.3266 19.5991 24.3543 19.5592 24.3728C17.7424 25.2126 15.446 24.8517 13.8735 23.3179C12.7875 22.2606 12.2211 20.8956 12.1856 19.5446C12.1479 18.1935 12.6409 16.8563 13.6714 15.8522L21.7513 7.98174C23.5747 6.20498 26.4752 6.07773 28.614 7.55374C28.8805 7.73419 29.1359 7.94241 29.3758 8.17607L31.2836 10.0338L19.2394 21.7701C19.1105 21.8951 19.0084 22.0478 18.9417 22.2143C18.8751 22.3809 18.844 22.5591 18.8507 22.7395C18.8618 23.112 19.0217 23.4683 19.2927 23.7297C19.3793 23.8153 19.477 23.8893 19.5836 23.9518C19.6214 23.9749 19.6525 24.0073 19.6724 24.0443Z"
            fill="#F2F1FF" />
        <path opacity="0.8"
            d="M24.6605 18.6452C24.6405 18.6059 24.6294 18.5643 24.6339 18.5203C24.6361 18.4879 24.6427 18.4555 24.6605 18.4278C24.6627 18.4185 24.6672 18.4093 24.6738 18.4C24.6983 18.363 24.7338 18.3352 24.7738 18.3167C26.5905 17.4769 28.887 17.8378 30.4594 19.3717C31.5455 20.4289 32.1118 21.7939 32.1473 23.145C32.1851 24.4961 31.692 25.8333 30.6615 26.8373L22.5817 34.7078L19.0548 38.1457C19.0548 38.1457 15.7345 35.3232 14.9572 34.5135C13.9244 33.5071 13.9244 31.8021 14.9572 30.798L25.0936 20.9194C25.2224 20.7945 25.3246 20.6418 25.3912 20.4752C25.4578 20.3086 25.4889 20.1305 25.4823 19.95C25.4712 19.5776 25.3113 19.2213 25.0403 18.9599C24.9537 18.8743 24.856 18.8002 24.7494 18.7378C24.7116 18.7146 24.6805 18.6823 24.6605 18.6452Z"
            fill="#F2F1FF" />
    </g>
    <defs>
        <clipPath id="clip0_1386_23683">
            <rect width="33" height="33" fill="white" transform="translate(5.5 5.5)" />
        </clipPath>
    </defs>
</svg>