<svg width="32" height="32" viewBox="0 0 32 32" fill="none" xmlns="http://www.w3.org/2000/svg">
    <path fill-rule="evenodd" clip-rule="evenodd"
        d="M24.9426 11.7288C24.9426 13.4033 25.3852 14.3904 26.3592 15.5278C27.0973 16.3657 27.3332 17.4414 27.3332 18.6084C27.3332 19.774 26.9502 20.8805 26.1829 21.7789C25.1785 22.8559 23.7619 23.5434 22.3162 23.663C20.2211 23.8416 18.1247 23.992 16.0005 23.992C13.875 23.992 11.7799 23.902 9.68484 23.663C8.23778 23.5434 6.8212 22.8559 5.81806 21.7789C5.0508 20.8805 4.6665 19.774 4.6665 18.6084C4.6665 17.4414 4.90371 16.3657 5.64049 15.5278C6.64495 14.3904 7.0584 13.4033 7.0584 11.7288V11.1607C7.0584 8.91811 7.61761 7.45168 8.76916 6.01614C10.4813 3.92259 13.2256 2.66699 15.9409 2.66699H16.0601C18.8337 2.66699 21.6668 3.98302 23.3498 6.16654C24.4417 7.57254 24.9426 8.9772 24.9426 11.1607V11.7288ZM12.0981 26.7481C12.0981 26.0767 12.7143 25.7691 13.2841 25.6375C13.9506 25.4965 18.0122 25.4965 18.6788 25.6375C19.2486 25.7691 19.8648 26.0767 19.8648 26.7481C19.8316 27.3873 19.4566 27.954 18.9385 28.3139C18.2666 28.8376 17.4782 29.1693 16.6539 29.2888C16.1981 29.3479 15.7502 29.3493 15.3102 29.2888C14.4847 29.1693 13.6962 28.8376 13.0257 28.3126C12.5062 27.954 12.1312 27.3873 12.0981 26.7481Z"
        fill="#6D79E8" />
</svg>