<svg width="168" height="44" viewBox="0 0 168 44" fill="none" xmlns="http://www.w3.org/2000/svg">
    <rect width="168" height="44" rx="8" fill="#6D79E8" />
    <path
        d="M62.88 18V9.86H65.52C66.1727 9.86 66.741 9.97733 67.225 10.212C67.709 10.4393 68.1123 10.7473 68.435 11.136C68.7577 11.5247 68.9997 11.961 69.161 12.445C69.3223 12.929 69.403 13.424 69.403 13.93C69.403 14.436 69.3223 14.931 69.161 15.415C68.9997 15.899 68.7577 16.3353 68.435 16.724C68.1123 17.1127 67.709 17.4243 67.225 17.659C66.741 17.8863 66.1727 18 65.52 18H62.88ZM65.476 10.806H63.958V17.054H65.476C65.9527 17.054 66.367 16.966 66.719 16.79C67.0783 16.614 67.3753 16.3793 67.61 16.086C67.852 15.7853 68.0317 15.448 68.149 15.074C68.2663 14.7 68.325 14.3187 68.325 13.93C68.325 13.5413 68.2663 13.16 68.149 12.786C68.0317 12.412 67.852 12.0783 67.61 11.785C67.3753 11.4843 67.0783 11.246 66.719 11.07C66.367 10.894 65.9527 10.806 65.476 10.806ZM73.5339 18.11C72.9106 18.11 72.3863 17.967 71.9609 17.681C71.5356 17.3877 71.2129 17.01 70.9929 16.548C70.7729 16.086 70.6629 15.5983 70.6629 15.085C70.6629 14.5643 70.7729 14.0767 70.9929 13.622C71.2129 13.16 71.5356 12.786 71.9609 12.5C72.3863 12.2067 72.9106 12.06 73.5339 12.06C74.1573 12.06 74.6816 12.2067 75.1069 12.5C75.5323 12.786 75.8549 13.16 76.0749 13.622C76.2949 14.0767 76.4049 14.5643 76.4049 15.085C76.4049 15.5983 76.2949 16.086 76.0749 16.548C75.8549 17.01 75.5323 17.3877 75.1069 17.681C74.6816 17.967 74.1573 18.11 73.5339 18.11ZM73.5339 17.197C73.9299 17.197 74.2599 17.098 74.5239 16.9C74.7953 16.6947 74.9969 16.4307 75.1289 16.108C75.2683 15.7853 75.3379 15.4443 75.3379 15.085C75.3379 14.7183 75.2683 14.3773 75.1289 14.062C74.9969 13.7393 74.7953 13.479 74.5239 13.281C74.2599 13.0757 73.9299 12.973 73.5339 12.973C73.1453 12.973 72.8153 13.0757 72.5439 13.281C72.2726 13.479 72.0673 13.7393 71.9279 14.062C71.7959 14.3773 71.7299 14.7183 71.7299 15.085C71.7299 15.4443 71.7959 15.7853 71.9279 16.108C72.0673 16.4307 72.2726 16.6947 72.5439 16.9C72.8153 17.098 73.1453 17.197 73.5339 17.197ZM79.1117 18L77.2307 12.17H78.2977L79.6837 16.592L81.1357 12.17H82.1257L83.5667 16.592L84.9637 12.17H86.0307L84.1387 18H83.0167L81.6307 13.699L80.2447 18H79.1117ZM87.187 18V12.17H88.232V13.017H88.298C88.3493 12.929 88.4337 12.808 88.551 12.654C88.6757 12.5 88.8517 12.3643 89.079 12.247C89.3063 12.1223 89.5923 12.06 89.937 12.06C90.3623 12.06 90.7253 12.159 91.026 12.357C91.3267 12.5477 91.554 12.808 91.708 13.138C91.8693 13.468 91.95 13.8383 91.95 14.249V18H90.905V14.315C90.905 13.9263 90.795 13.6037 90.575 13.347C90.3623 13.0903 90.0507 12.962 89.64 12.962C89.31 12.962 89.0423 13.0463 88.837 13.215C88.6317 13.3763 88.4777 13.5927 88.375 13.864C88.2797 14.128 88.232 14.4103 88.232 14.711V18H87.187ZM93.6027 18L93.6137 9.64H94.6477V18H93.6027ZM99.0574 18.11C98.434 18.11 97.9097 17.967 97.4844 17.681C97.059 17.3877 96.7364 17.01 96.5164 16.548C96.2964 16.086 96.1864 15.5983 96.1864 15.085C96.1864 14.5643 96.2964 14.0767 96.5164 13.622C96.7364 13.16 97.059 12.786 97.4844 12.5C97.9097 12.2067 98.434 12.06 99.0574 12.06C99.6807 12.06 100.205 12.2067 100.63 12.5C101.056 12.786 101.378 13.16 101.598 13.622C101.818 14.0767 101.928 14.5643 101.928 15.085C101.928 15.5983 101.818 16.086 101.598 16.548C101.378 17.01 101.056 17.3877 100.63 17.681C100.205 17.967 99.6807 18.11 99.0574 18.11ZM99.0574 17.197C99.4534 17.197 99.7834 17.098 100.047 16.9C100.319 16.6947 100.52 16.4307 100.652 16.108C100.792 15.7853 100.861 15.4443 100.861 15.085C100.861 14.7183 100.792 14.3773 100.652 14.062C100.52 13.7393 100.319 13.479 100.047 13.281C99.7834 13.0757 99.4534 12.973 99.0574 12.973C98.6687 12.973 98.3387 13.0757 98.0674 13.281C97.796 13.479 97.5907 13.7393 97.4514 14.062C97.3194 14.3773 97.2534 14.7183 97.2534 15.085C97.2534 15.4443 97.3194 15.7853 97.4514 16.108C97.5907 16.4307 97.796 16.6947 98.0674 16.9C98.3387 17.098 98.6687 17.197 99.0574 17.197ZM105.83 12.06C106.197 12.06 106.505 12.1187 106.754 12.236C107.004 12.3533 107.205 12.4927 107.359 12.654C107.513 12.808 107.631 12.9547 107.711 13.094H107.777V12.17H108.822V18H107.777V17.076H107.711C107.631 17.2153 107.513 17.3657 107.359 17.527C107.205 17.6883 107.004 17.8277 106.754 17.945C106.505 18.055 106.197 18.11 105.83 18.11C105.39 18.11 105.005 18.0257 104.675 17.857C104.345 17.681 104.07 17.45 103.85 17.164C103.63 16.8707 103.465 16.5443 103.355 16.185C103.245 15.8257 103.19 15.459 103.19 15.085C103.19 14.711 103.245 14.3443 103.355 13.985C103.465 13.6257 103.63 13.303 103.85 13.017C104.07 12.7237 104.345 12.4927 104.675 12.324C105.005 12.148 105.39 12.06 105.83 12.06ZM106.006 12.951C105.618 12.951 105.291 13.0573 105.027 13.27C104.763 13.4753 104.565 13.7393 104.433 14.062C104.309 14.3847 104.246 14.7257 104.246 15.085C104.246 15.437 104.309 15.778 104.433 16.108C104.565 16.4307 104.763 16.6983 105.027 16.911C105.291 17.1163 105.618 17.219 106.006 17.219C106.395 17.219 106.718 17.1163 106.974 16.911C107.238 16.6983 107.433 16.4307 107.557 16.108C107.689 15.778 107.755 15.437 107.755 15.085C107.755 14.7257 107.689 14.3847 107.557 14.062C107.433 13.7393 107.238 13.4753 106.974 13.27C106.718 13.0573 106.395 12.951 106.006 12.951ZM112.888 18.11C112.448 18.11 112.063 18.0257 111.733 17.857C111.403 17.681 111.128 17.45 110.908 17.164C110.688 16.8707 110.523 16.5443 110.413 16.185C110.303 15.8257 110.248 15.459 110.248 15.085C110.248 14.711 110.303 14.3443 110.413 13.985C110.523 13.6257 110.688 13.303 110.908 13.017C111.128 12.7237 111.403 12.4927 111.733 12.324C112.063 12.148 112.448 12.06 112.888 12.06C113.255 12.06 113.563 12.1187 113.812 12.236C114.061 12.3533 114.263 12.4927 114.417 12.654C114.571 12.808 114.688 12.9547 114.769 13.094H114.835V9.64H115.88V18H114.835V17.076H114.769C114.688 17.2153 114.571 17.3657 114.417 17.527C114.263 17.6883 114.061 17.8277 113.812 17.945C113.563 18.055 113.255 18.11 112.888 18.11ZM113.064 17.219C113.453 17.219 113.775 17.1163 114.032 16.911C114.296 16.6983 114.49 16.4307 114.615 16.108C114.747 15.778 114.813 15.437 114.813 15.085C114.813 14.7257 114.747 14.3847 114.615 14.062C114.49 13.7393 114.296 13.4753 114.032 13.27C113.775 13.0573 113.453 12.951 113.064 12.951C112.675 12.951 112.349 13.0573 112.085 13.27C111.821 13.4753 111.623 13.7393 111.491 14.062C111.366 14.3847 111.304 14.7257 111.304 15.085C111.304 15.437 111.366 15.778 111.491 16.108C111.623 16.4307 111.821 16.6983 112.085 16.911C112.349 17.1163 112.675 17.219 113.064 17.219ZM120.751 11.059C120.553 11.059 120.388 10.993 120.256 10.861C120.131 10.729 120.069 10.5713 120.069 10.388C120.069 10.1973 120.131 10.036 120.256 9.904C120.388 9.772 120.553 9.706 120.751 9.706C120.941 9.706 121.103 9.772 121.235 9.904C121.367 10.036 121.433 10.1973 121.433 10.388C121.433 10.5713 121.367 10.729 121.235 10.861C121.103 10.993 120.941 11.059 120.751 11.059ZM120.234 18V12.17H121.279V18H120.234ZM122.969 18V12.17H124.014V13.017H124.08C124.132 12.929 124.216 12.808 124.333 12.654C124.458 12.5 124.634 12.3643 124.861 12.247C125.089 12.1223 125.375 12.06 125.719 12.06C126.145 12.06 126.508 12.159 126.808 12.357C127.109 12.5477 127.336 12.808 127.49 13.138C127.652 13.468 127.732 13.8383 127.732 14.249V18H126.687V14.315C126.687 13.9263 126.577 13.6037 126.357 13.347C126.145 13.0903 125.833 12.962 125.422 12.962C125.092 12.962 124.825 13.0463 124.619 13.215C124.414 13.3763 124.26 13.5927 124.157 13.864C124.062 14.128 124.014 14.4103 124.014 14.711V18H122.969Z"
        fill="white" />
    <path
        d="M67.754 35.14C66.8953 35.14 66.1487 34.9907 65.514 34.692C64.8887 34.3933 64.366 33.992 63.946 33.488C63.526 32.9747 63.2133 32.4053 63.008 31.78C62.8027 31.1453 62.7 30.4967 62.7 29.834C62.7 29.1713 62.8027 28.5227 63.008 27.888C63.2133 27.2533 63.526 26.684 63.946 26.18C64.3753 25.6667 64.9073 25.2607 65.542 24.962C66.186 24.654 66.9373 24.5 67.796 24.5C68.468 24.5 69.042 24.584 69.518 24.752C69.994 24.92 70.3953 25.1393 70.722 25.41C71.0487 25.6713 71.31 25.9513 71.506 26.25C71.702 26.5487 71.8513 26.8333 71.954 27.104C72.0567 27.3747 72.1267 27.594 72.164 27.762C72.2013 27.93 72.22 28.014 72.22 28.014H70.582C70.582 28.014 70.5633 27.944 70.526 27.804C70.4887 27.664 70.414 27.496 70.302 27.3C70.1993 27.0947 70.0453 26.8893 69.84 26.684C69.6347 26.4787 69.364 26.3107 69.028 26.18C68.7013 26.04 68.2953 25.97 67.81 25.97C67.2313 25.97 66.7227 26.082 66.284 26.306C65.8547 26.5207 65.4953 26.81 65.206 27.174C64.926 27.538 64.716 27.9487 64.576 28.406C64.436 28.8633 64.366 29.33 64.366 29.806C64.366 30.2913 64.436 30.7673 64.576 31.234C64.7253 31.6913 64.94 32.1067 65.22 32.48C65.5093 32.844 65.864 33.1333 66.284 33.348C66.7133 33.5627 67.2127 33.67 67.782 33.67C68.6687 33.67 69.3733 33.418 69.896 32.914C70.4187 32.41 70.708 31.7287 70.764 30.87H67.81V29.554H72.346V30.296C72.346 31.36 72.1407 32.2513 71.73 32.97C71.3287 33.6887 70.778 34.23 70.078 34.594C69.3873 34.958 68.6127 35.14 67.754 35.14ZM77.5282 35.14C76.7162 35.14 76.0302 34.958 75.4702 34.594C74.9195 34.23 74.4995 33.754 74.2102 33.166C73.9302 32.578 73.7902 31.9527 73.7902 31.29C73.7902 30.6273 73.9302 30.002 74.2102 29.414C74.4995 28.826 74.9195 28.35 75.4702 27.986C76.0302 27.622 76.7162 27.44 77.5282 27.44C78.3309 27.44 79.0075 27.622 79.5582 27.986C80.1182 28.35 80.5382 28.826 80.8182 29.414C81.1075 30.002 81.2522 30.6273 81.2522 31.29C81.2522 31.9527 81.1075 32.578 80.8182 33.166C80.5382 33.754 80.1182 34.23 79.5582 34.594C79.0075 34.958 78.3309 35.14 77.5282 35.14ZM77.5282 33.782C77.9855 33.782 78.3682 33.6653 78.6762 33.432C78.9935 33.1987 79.2315 32.8907 79.3902 32.508C79.5582 32.1253 79.6422 31.7193 79.6422 31.29C79.6422 30.8513 79.5582 30.4453 79.3902 30.072C79.2315 29.6893 78.9935 29.3813 78.6762 29.148C78.3682 28.9147 77.9855 28.798 77.5282 28.798C77.0709 28.798 76.6835 28.9147 76.3662 29.148C76.0489 29.3813 75.8109 29.6893 75.6522 30.072C75.4935 30.4453 75.4142 30.8513 75.4142 31.29C75.4142 31.7193 75.4935 32.1253 75.6522 32.508C75.8109 32.8907 76.0489 33.1987 76.3662 33.432C76.6835 33.6653 77.0709 33.782 77.5282 33.782ZM86.5243 35.14C85.7123 35.14 85.0263 34.958 84.4663 34.594C83.9156 34.23 83.4956 33.754 83.2063 33.166C82.9263 32.578 82.7863 31.9527 82.7863 31.29C82.7863 30.6273 82.9263 30.002 83.2063 29.414C83.4956 28.826 83.9156 28.35 84.4663 27.986C85.0263 27.622 85.7123 27.44 86.5243 27.44C87.3269 27.44 88.0036 27.622 88.5543 27.986C89.1143 28.35 89.5343 28.826 89.8143 29.414C90.1036 30.002 90.2483 30.6273 90.2483 31.29C90.2483 31.9527 90.1036 32.578 89.8143 33.166C89.5343 33.754 89.1143 34.23 88.5543 34.594C88.0036 34.958 87.3269 35.14 86.5243 35.14ZM86.5243 33.782C86.9816 33.782 87.3643 33.6653 87.6723 33.432C87.9896 33.1987 88.2276 32.8907 88.3863 32.508C88.5543 32.1253 88.6383 31.7193 88.6383 31.29C88.6383 30.8513 88.5543 30.4453 88.3863 30.072C88.2276 29.6893 87.9896 29.3813 87.6723 29.148C87.3643 28.9147 86.9816 28.798 86.5243 28.798C86.0669 28.798 85.6796 28.9147 85.3623 29.148C85.0449 29.3813 84.8069 29.6893 84.6483 30.072C84.4896 30.4453 84.4103 30.8513 84.4103 31.29C84.4103 31.7193 84.4896 32.1253 84.6483 32.508C84.8069 32.8907 85.0449 33.1987 85.3623 33.432C85.6796 33.6653 86.0669 33.782 86.5243 33.782ZM95.5624 37.954C94.9184 37.954 94.3864 37.87 93.9664 37.702C93.5464 37.534 93.2104 37.324 92.9584 37.072C92.7064 36.8293 92.5197 36.582 92.3984 36.33C92.277 36.0873 92.1977 35.882 92.1604 35.714C92.123 35.546 92.1044 35.462 92.1044 35.462H93.6864C93.6864 35.462 93.705 35.518 93.7424 35.63C93.7797 35.7513 93.859 35.8867 93.9804 36.036C94.111 36.1947 94.3024 36.33 94.5544 36.442C94.8064 36.5633 95.1377 36.624 95.5484 36.624C96.0337 36.624 96.421 36.526 96.7104 36.33C97.009 36.1433 97.219 35.8913 97.3404 35.574C97.471 35.266 97.5364 34.93 97.5364 34.566V33.726H97.4664C97.3637 33.8847 97.2144 34.062 97.0184 34.258C96.8317 34.4447 96.5797 34.608 96.2624 34.748C95.945 34.888 95.5624 34.958 95.1144 34.958C94.5544 34.958 94.0644 34.8507 93.6444 34.636C93.2337 34.4213 92.8884 34.1367 92.6084 33.782C92.3377 33.418 92.1324 33.012 91.9924 32.564C91.8524 32.116 91.7824 31.6587 91.7824 31.192C91.7824 30.7253 91.8524 30.2727 91.9924 29.834C92.1324 29.386 92.3377 28.9847 92.6084 28.63C92.8884 28.266 93.2337 27.9767 93.6444 27.762C94.0644 27.5473 94.5544 27.44 95.1144 27.44C95.5624 27.44 95.945 27.51 96.2624 27.65C96.5797 27.7807 96.8364 27.944 97.0324 28.14C97.2284 28.3267 97.373 28.504 97.4664 28.672H97.5364V27.58H99.1324V34.552C99.1324 35.2147 98.997 35.8027 98.7264 36.316C98.4557 36.8293 98.0544 37.2307 97.5224 37.52C96.9904 37.8093 96.337 37.954 95.5624 37.954ZM95.4784 33.642C95.9357 33.642 96.3184 33.5253 96.6264 33.292C96.9344 33.0493 97.163 32.7413 97.3124 32.368C97.4617 31.9947 97.5364 31.6027 97.5364 31.192C97.5364 30.7813 97.4617 30.3893 97.3124 30.016C97.163 29.6427 96.9344 29.3393 96.6264 29.106C96.3184 28.8727 95.9357 28.756 95.4784 28.756C95.0117 28.756 94.6244 28.8727 94.3164 29.106C94.0084 29.3393 93.7797 29.6427 93.6304 30.016C93.481 30.3893 93.4064 30.7813 93.4064 31.192C93.4064 31.6027 93.481 31.9947 93.6304 32.368C93.7797 32.7413 94.0084 33.0493 94.3164 33.292C94.6244 33.5253 95.0117 33.642 95.4784 33.642ZM101.127 35L101.141 24.36H102.723V35H101.127ZM108.164 35.14C107.539 35.14 106.997 35.0327 106.54 34.818C106.092 34.594 105.719 34.3 105.42 33.936C105.131 33.5627 104.911 33.1473 104.762 32.69C104.622 32.2327 104.552 31.766 104.552 31.29C104.552 30.8233 104.622 30.3613 104.762 29.904C104.902 29.4467 105.117 29.0313 105.406 28.658C105.695 28.2847 106.064 27.9907 106.512 27.776C106.96 27.552 107.487 27.44 108.094 27.44C108.747 27.44 109.321 27.5893 109.816 27.888C110.32 28.1773 110.712 28.6113 110.992 29.19C111.281 29.7593 111.426 30.4687 111.426 31.318V31.752H106.162C106.199 32.3213 106.391 32.8113 106.736 33.222C107.081 33.6327 107.557 33.838 108.164 33.838C108.509 33.838 108.794 33.782 109.018 33.67C109.242 33.5487 109.415 33.4133 109.536 33.264C109.657 33.1147 109.741 32.984 109.788 32.872C109.844 32.76 109.872 32.704 109.872 32.704H111.356C111.356 32.704 111.333 32.788 111.286 32.956C111.239 33.1147 111.151 33.3153 111.02 33.558C110.899 33.8007 110.721 34.0433 110.488 34.286C110.255 34.5287 109.947 34.734 109.564 34.902C109.181 35.0607 108.715 35.14 108.164 35.14ZM106.176 30.632H109.886C109.849 29.9787 109.653 29.498 109.298 29.19C108.953 28.882 108.547 28.728 108.08 28.728C107.557 28.728 107.123 28.9007 106.778 29.246C106.433 29.582 106.232 30.044 106.176 30.632ZM116.521 35V24.64H120.413C121.225 24.64 121.902 24.808 122.443 25.144C122.984 25.4707 123.39 25.8953 123.661 26.418C123.932 26.9313 124.067 27.4727 124.067 28.042C124.067 28.6113 123.932 29.1573 123.661 29.68C123.39 30.2027 122.984 30.632 122.443 30.968C121.902 31.2947 121.225 31.458 120.413 31.458H118.159V35H116.521ZM120.413 26.068H118.159V30.03H120.413C120.861 30.03 121.234 29.9367 121.533 29.75C121.832 29.554 122.056 29.3067 122.205 29.008C122.354 28.7 122.429 28.3827 122.429 28.056C122.429 27.72 122.354 27.4027 122.205 27.104C122.056 26.796 121.832 26.5487 121.533 26.362C121.234 26.166 120.861 26.068 120.413 26.068ZM125.709 35L125.723 24.36H127.305V35H125.709ZM132.466 27.44C132.933 27.44 133.32 27.5147 133.628 27.664C133.945 27.8133 134.197 27.986 134.384 28.182C134.571 28.378 134.706 28.546 134.79 28.686H134.874V27.58H136.47V35H134.874V33.894H134.79C134.706 34.034 134.571 34.202 134.384 34.398C134.197 34.594 133.945 34.7667 133.628 34.916C133.32 35.0653 132.933 35.14 132.466 35.14C131.906 35.14 131.416 35.0327 130.996 34.818C130.585 34.594 130.24 34.3 129.96 33.936C129.68 33.5627 129.47 33.1473 129.33 32.69C129.199 32.2327 129.134 31.766 129.134 31.29C129.134 30.814 129.199 30.3473 129.33 29.89C129.47 29.4327 129.68 29.022 129.96 28.658C130.24 28.2847 130.585 27.9907 130.996 27.776C131.416 27.552 131.906 27.44 132.466 27.44ZM132.816 28.77C132.359 28.77 131.976 28.896 131.668 29.148C131.36 29.3907 131.127 29.7033 130.968 30.086C130.819 30.4687 130.744 30.87 130.744 31.29C130.744 31.71 130.819 32.1113 130.968 32.494C131.127 32.8767 131.36 33.194 131.668 33.446C131.976 33.6887 132.359 33.81 132.816 33.81C133.273 33.81 133.651 33.6887 133.95 33.446C134.258 33.194 134.487 32.8767 134.636 32.494C134.795 32.1113 134.874 31.71 134.874 31.29C134.874 30.87 134.795 30.4687 134.636 30.086C134.487 29.7033 134.258 29.3907 133.95 29.148C133.651 28.896 133.273 28.77 132.816 28.77ZM138.525 37.73C138.292 37.73 138.1 37.7207 137.951 37.702C137.802 37.6833 137.727 37.674 137.727 37.674V36.344C137.727 36.344 137.802 36.3487 137.951 36.358C138.1 36.3767 138.264 36.386 138.441 36.386C138.954 36.386 139.374 36.288 139.701 36.092C140.037 35.9053 140.322 35.574 140.555 35.098L137.727 27.58H139.351L141.353 33.138L143.355 27.58H145.007L142.207 34.916C141.834 35.8773 141.358 36.5867 140.779 37.044C140.2 37.5013 139.449 37.73 138.525 37.73Z"
        fill="white" />
    <path
        d="M43.156 6.40625C43.3568 6.5819 43.3598 6.75975 43.2082 6.98298C42.8191 7.55532 42.4484 8.1401 42.071 8.72123C42.0203 8.79954 41.9732 8.88151 41.9239 8.96568C44.5426 10.3973 46.1432 12.4407 46.0696 15.5586H29.5787C29.497 12.4488 31.0984 10.4017 33.7303 8.96129C33.3044 8.30258 32.8873 7.65047 32.4526 7.0064C32.3003 6.78098 32.2672 6.59435 32.4894 6.40625H32.7211C32.8093 6.51823 32.9072 6.62582 32.9859 6.74292C33.3816 7.34454 33.7766 7.94688 34.1628 8.55509C34.2518 8.69634 34.329 8.71171 34.4887 8.66634C35.1264 8.48556 35.762 8.28136 36.4137 8.17304C37.8561 7.93404 39.3353 8.04937 40.7227 8.50898C41.3685 8.7183 41.3605 8.72855 41.7327 8.16792C42.1247 7.57728 42.5264 6.99176 42.925 6.40625H43.156ZM34.0046 12.7635C34.1087 12.7649 34.212 12.7458 34.3085 12.7072C34.405 12.6686 34.4929 12.6114 34.567 12.5387C34.6412 12.4661 34.7 12.3795 34.7402 12.284C34.7804 12.1885 34.8012 12.0861 34.8013 11.9825C34.7969 11.7738 34.7105 11.575 34.5606 11.4288C34.4108 11.2825 34.2094 11.2005 33.9995 11.2001C33.7943 11.2026 33.5981 11.2848 33.453 11.4292C33.3078 11.5737 33.2252 11.7688 33.2227 11.973C33.2197 12.0766 33.2378 12.1797 33.2759 12.2761C33.314 12.3725 33.3713 12.4603 33.4443 12.5341C33.5174 12.608 33.6046 12.6663 33.7009 12.7057C33.7972 12.7452 33.9005 12.7648 34.0046 12.7635ZM41.6334 12.7635C41.7373 12.7659 41.8407 12.7473 41.9373 12.7087C42.0338 12.6702 42.1215 12.6126 42.195 12.5394C42.2685 12.4662 42.3264 12.3789 42.365 12.2828C42.4036 12.1867 42.4222 12.0838 42.4197 11.9803C42.4201 11.7762 42.34 11.58 42.1965 11.4341C42.053 11.2882 41.8576 11.2042 41.6525 11.2001C41.4425 11.1987 41.2403 11.2791 41.0891 11.4241C40.9379 11.569 40.8497 11.7671 40.8433 11.976C40.8427 12.0794 40.8626 12.182 40.9021 12.2778C40.9415 12.3735 40.9996 12.4606 41.0731 12.5338C41.1466 12.6071 41.2339 12.6651 41.3301 12.7045C41.4263 12.7439 41.5293 12.764 41.6334 12.7635Z"
        fill="white" />
    <path
        d="M45.9978 16.3359C46.0036 16.4194 46.011 16.4823 46.011 16.5504C46.011 20.4719 46.011 24.3933 46.011 28.3148C46.011 29.3592 45.3416 30.0143 44.2868 30.0348C43.9484 30.0414 43.6101 30.0348 43.2717 30.0348H42.6509V30.3627C42.6509 31.612 42.6648 32.8613 42.6465 34.1107C42.6259 35.562 41.151 36.4044 39.9123 35.6769C39.315 35.3256 39.0392 34.776 39.0399 34.088V30.0626H36.6059V30.3744C36.6059 31.6332 36.6206 32.8928 36.6015 34.1517C36.6027 34.4709 36.5179 34.7846 36.3561 35.0603C36.1942 35.3359 35.9612 35.5634 35.6811 35.7192C35.401 35.8749 35.0841 35.9532 34.7634 35.9459C34.4426 35.9386 34.1296 35.846 33.857 35.6777C33.3421 35.3732 33.0258 34.9121 33.014 34.3134C32.989 33.0165 33.0001 31.7189 32.9956 30.4212V30.0553C32.8669 30.0494 32.7647 30.0421 32.6617 30.0399C32.1313 30.0296 31.5973 30.0531 31.0699 30.0048C30.2549 29.9316 29.6899 29.3073 29.6392 28.4897C29.6333 28.3939 29.6318 28.298 29.6318 28.2014C29.6318 24.357 29.6318 20.5124 29.6318 16.6675V16.3396L45.9978 16.3359Z"
        fill="white" />
    <path
        d="M50.4778 21.6518C50.4778 22.9004 50.4933 24.1497 50.4734 25.3983C50.4506 26.8621 48.9596 27.7016 47.7187 26.9521C47.1228 26.5928 46.8661 26.0358 46.8661 25.3515C46.8661 23.2954 46.8661 21.2397 46.8661 19.1846C46.8661 18.714 46.8551 18.2426 46.8705 17.7727C46.8782 17.3409 47.0448 16.9268 47.3387 16.6089C47.6325 16.291 48.0334 16.0913 48.4653 16.0477C49.3943 15.9533 50.2005 16.4993 50.4234 17.3922C50.4644 17.5892 50.482 17.7904 50.4756 17.9916C50.4808 19.2153 50.4785 20.4317 50.4778 21.6518Z"
        fill="white" />
    <path
        d="M25.1677 21.6249C25.1677 20.3763 25.1802 19.127 25.1677 17.8784C25.1586 17.5551 25.2372 17.2354 25.3954 16.953C25.5536 16.6705 25.7854 16.4357 26.0664 16.2733C26.3475 16.111 26.6673 16.027 26.9923 16.0304C27.3172 16.0337 27.6353 16.1242 27.9129 16.2923C28.469 16.6195 28.7721 17.1282 28.775 17.7678C28.7868 20.3426 28.7919 22.9174 28.775 25.4915C28.7676 26.4803 27.9585 27.2239 26.9736 27.2217C25.9886 27.2195 25.2082 26.5023 25.1861 25.5149C25.1559 24.2195 25.1787 22.9218 25.1787 21.6249H25.1677Z"
        fill="white" />
</svg>