<svg width="168" height="44" viewBox="0 0 168 44" fill="none" xmlns="http://www.w3.org/2000/svg">
<rect width="168" height="44" rx="8" fill="#383C66"/>
<path d="M47.6358 27.7274V27.81C47.5858 27.9465 47.5344 28.0828 47.4859 28.2207C46.9522 29.7277 46.176 31.1036 45.2221 32.3837C44.7455 33.023 44.2547 33.6482 43.6439 34.1715C42.7258 34.9569 41.6759 35.2405 40.5006 34.9472C40.0349 34.831 39.5827 34.6442 39.1422 34.4519C37.711 33.8285 36.2725 33.8026 34.8268 34.3744C34.4202 34.5353 34.0192 34.7126 33.6071 34.8576C32.8388 35.1274 32.0607 35.203 31.2808 34.8974C30.7294 34.6815 30.268 34.3309 29.8588 33.9137C28.9484 32.9855 28.1731 31.9482 27.5058 30.8388C26.0503 28.4152 25.2396 25.7855 25.1043 22.9599C25.0402 21.622 25.1926 20.3076 25.6484 19.0397C26.2526 17.3595 27.2685 15.9979 28.8443 15.1113C30.4376 14.2145 32.1164 13.9623 33.8746 14.5991C34.4418 14.8047 35.0046 15.0219 35.5659 15.2425C36.2097 15.4959 36.8479 15.5027 37.4917 15.2425C37.8929 15.0804 38.3019 14.9376 38.7046 14.7769C39.9548 14.2747 41.2369 14.0418 42.5875 14.2592C43.9675 14.482 45.177 15.0354 46.1692 16.025C46.4401 16.2953 46.6769 16.5997 46.9289 16.8877C46.6708 17.0809 46.4382 17.2464 46.2153 17.424C45.263 18.1797 44.5593 19.2017 44.1945 20.3586C43.8297 21.5155 43.8205 22.7546 44.1679 23.9169C44.6397 25.4954 45.6537 26.6412 47.0655 27.458C47.2469 27.5629 47.4454 27.6383 47.6358 27.7274Z" fill="url(#paint0_linear_1386_26647)"/>
<path d="M41.8472 7.50781C41.8649 7.79071 41.9231 8.07771 41.8935 8.35578C41.6454 10.7054 40.496 12.4453 38.3354 13.4788C37.8782 13.7012 37.3815 13.8314 36.8736 13.862C36.7317 13.8697 36.5884 13.8516 36.446 13.8557C36.323 13.8593 36.2931 13.7944 36.2808 13.6888C36.2017 13.0123 36.3164 12.3576 36.5459 11.7264C37.2809 9.70528 38.6925 8.37245 40.7386 7.70736C41.0338 7.61073 41.348 7.5728 41.6534 7.50781H41.8472Z" fill="url(#paint1_linear_1386_26647)"/>
<path d="M60.88 18V9.86H63.52C64.1727 9.86 64.741 9.97733 65.225 10.212C65.709 10.4393 66.1123 10.7473 66.435 11.136C66.7577 11.5247 66.9997 11.961 67.161 12.445C67.3223 12.929 67.403 13.424 67.403 13.93C67.403 14.436 67.3223 14.931 67.161 15.415C66.9997 15.899 66.7577 16.3353 66.435 16.724C66.1123 17.1127 65.709 17.4243 65.225 17.659C64.741 17.8863 64.1727 18 63.52 18H60.88ZM63.476 10.806H61.958V17.054H63.476C63.9527 17.054 64.367 16.966 64.719 16.79C65.0783 16.614 65.3753 16.3793 65.61 16.086C65.852 15.7853 66.0317 15.448 66.149 15.074C66.2663 14.7 66.325 14.3187 66.325 13.93C66.325 13.5413 66.2663 13.16 66.149 12.786C66.0317 12.412 65.852 12.0783 65.61 11.785C65.3753 11.4843 65.0783 11.246 64.719 11.07C64.367 10.894 63.9527 10.806 63.476 10.806ZM71.5339 18.11C70.9106 18.11 70.3863 17.967 69.9609 17.681C69.5356 17.3877 69.2129 17.01 68.9929 16.548C68.7729 16.086 68.6629 15.5983 68.6629 15.085C68.6629 14.5643 68.7729 14.0767 68.9929 13.622C69.2129 13.16 69.5356 12.786 69.9609 12.5C70.3863 12.2067 70.9106 12.06 71.5339 12.06C72.1573 12.06 72.6816 12.2067 73.1069 12.5C73.5323 12.786 73.8549 13.16 74.0749 13.622C74.2949 14.0767 74.4049 14.5643 74.4049 15.085C74.4049 15.5983 74.2949 16.086 74.0749 16.548C73.8549 17.01 73.5323 17.3877 73.1069 17.681C72.6816 17.967 72.1573 18.11 71.5339 18.11ZM71.5339 17.197C71.9299 17.197 72.2599 17.098 72.5239 16.9C72.7953 16.6947 72.9969 16.4307 73.1289 16.108C73.2683 15.7853 73.3379 15.4443 73.3379 15.085C73.3379 14.7183 73.2683 14.3773 73.1289 14.062C72.9969 13.7393 72.7953 13.479 72.5239 13.281C72.2599 13.0757 71.9299 12.973 71.5339 12.973C71.1453 12.973 70.8153 13.0757 70.5439 13.281C70.2726 13.479 70.0673 13.7393 69.9279 14.062C69.7959 14.3773 69.7299 14.7183 69.7299 15.085C69.7299 15.4443 69.7959 15.7853 69.9279 16.108C70.0673 16.4307 70.2726 16.6947 70.5439 16.9C70.8153 17.098 71.1453 17.197 71.5339 17.197ZM77.1117 18L75.2307 12.17H76.2977L77.6837 16.592L79.1357 12.17H80.1257L81.5667 16.592L82.9637 12.17H84.0307L82.1387 18H81.0167L79.6307 13.699L78.2447 18H77.1117ZM85.187 18V12.17H86.232V13.017H86.298C86.3493 12.929 86.4337 12.808 86.551 12.654C86.6757 12.5 86.8517 12.3643 87.079 12.247C87.3063 12.1223 87.5923 12.06 87.937 12.06C88.3623 12.06 88.7253 12.159 89.026 12.357C89.3267 12.5477 89.554 12.808 89.708 13.138C89.8693 13.468 89.95 13.8383 89.95 14.249V18H88.905V14.315C88.905 13.9263 88.795 13.6037 88.575 13.347C88.3623 13.0903 88.0507 12.962 87.64 12.962C87.31 12.962 87.0423 13.0463 86.837 13.215C86.6317 13.3763 86.4777 13.5927 86.375 13.864C86.2797 14.128 86.232 14.4103 86.232 14.711V18H85.187ZM91.6027 18L91.6137 9.64H92.6477V18H91.6027ZM97.0574 18.11C96.434 18.11 95.9097 17.967 95.4844 17.681C95.059 17.3877 94.7364 17.01 94.5164 16.548C94.2964 16.086 94.1864 15.5983 94.1864 15.085C94.1864 14.5643 94.2964 14.0767 94.5164 13.622C94.7364 13.16 95.059 12.786 95.4844 12.5C95.9097 12.2067 96.434 12.06 97.0574 12.06C97.6807 12.06 98.205 12.2067 98.6304 12.5C99.0557 12.786 99.3784 13.16 99.5984 13.622C99.8184 14.0767 99.9284 14.5643 99.9284 15.085C99.9284 15.5983 99.8184 16.086 99.5984 16.548C99.3784 17.01 99.0557 17.3877 98.6304 17.681C98.205 17.967 97.6807 18.11 97.0574 18.11ZM97.0574 17.197C97.4534 17.197 97.7834 17.098 98.0474 16.9C98.3187 16.6947 98.5204 16.4307 98.6524 16.108C98.7917 15.7853 98.8614 15.4443 98.8614 15.085C98.8614 14.7183 98.7917 14.3773 98.6524 14.062C98.5204 13.7393 98.3187 13.479 98.0474 13.281C97.7834 13.0757 97.4534 12.973 97.0574 12.973C96.6687 12.973 96.3387 13.0757 96.0674 13.281C95.796 13.479 95.5907 13.7393 95.4514 14.062C95.3194 14.3773 95.2534 14.7183 95.2534 15.085C95.2534 15.4443 95.3194 15.7853 95.4514 16.108C95.5907 16.4307 95.796 16.6947 96.0674 16.9C96.3387 17.098 96.6687 17.197 97.0574 17.197ZM103.83 12.06C104.197 12.06 104.505 12.1187 104.754 12.236C105.004 12.3533 105.205 12.4927 105.359 12.654C105.513 12.808 105.631 12.9547 105.711 13.094H105.777V12.17H106.822V18H105.777V17.076H105.711C105.631 17.2153 105.513 17.3657 105.359 17.527C105.205 17.6883 105.004 17.8277 104.754 17.945C104.505 18.055 104.197 18.11 103.83 18.11C103.39 18.11 103.005 18.0257 102.675 17.857C102.345 17.681 102.07 17.45 101.85 17.164C101.63 16.8707 101.465 16.5443 101.355 16.185C101.245 15.8257 101.19 15.459 101.19 15.085C101.19 14.711 101.245 14.3443 101.355 13.985C101.465 13.6257 101.63 13.303 101.85 13.017C102.07 12.7237 102.345 12.4927 102.675 12.324C103.005 12.148 103.39 12.06 103.83 12.06ZM104.006 12.951C103.618 12.951 103.291 13.0573 103.027 13.27C102.763 13.4753 102.565 13.7393 102.433 14.062C102.309 14.3847 102.246 14.7257 102.246 15.085C102.246 15.437 102.309 15.778 102.433 16.108C102.565 16.4307 102.763 16.6983 103.027 16.911C103.291 17.1163 103.618 17.219 104.006 17.219C104.395 17.219 104.718 17.1163 104.974 16.911C105.238 16.6983 105.433 16.4307 105.557 16.108C105.689 15.778 105.755 15.437 105.755 15.085C105.755 14.7257 105.689 14.3847 105.557 14.062C105.433 13.7393 105.238 13.4753 104.974 13.27C104.718 13.0573 104.395 12.951 104.006 12.951ZM110.888 18.11C110.448 18.11 110.063 18.0257 109.733 17.857C109.403 17.681 109.128 17.45 108.908 17.164C108.688 16.8707 108.523 16.5443 108.413 16.185C108.303 15.8257 108.248 15.459 108.248 15.085C108.248 14.711 108.303 14.3443 108.413 13.985C108.523 13.6257 108.688 13.303 108.908 13.017C109.128 12.7237 109.403 12.4927 109.733 12.324C110.063 12.148 110.448 12.06 110.888 12.06C111.255 12.06 111.563 12.1187 111.812 12.236C112.061 12.3533 112.263 12.4927 112.417 12.654C112.571 12.808 112.688 12.9547 112.769 13.094H112.835V9.64H113.88V18H112.835V17.076H112.769C112.688 17.2153 112.571 17.3657 112.417 17.527C112.263 17.6883 112.061 17.8277 111.812 17.945C111.563 18.055 111.255 18.11 110.888 18.11ZM111.064 17.219C111.453 17.219 111.775 17.1163 112.032 16.911C112.296 16.6983 112.49 16.4307 112.615 16.108C112.747 15.778 112.813 15.437 112.813 15.085C112.813 14.7257 112.747 14.3847 112.615 14.062C112.49 13.7393 112.296 13.4753 112.032 13.27C111.775 13.0573 111.453 12.951 111.064 12.951C110.675 12.951 110.349 13.0573 110.085 13.27C109.821 13.4753 109.623 13.7393 109.491 14.062C109.366 14.3847 109.304 14.7257 109.304 15.085C109.304 15.437 109.366 15.778 109.491 16.108C109.623 16.4307 109.821 16.6983 110.085 16.911C110.349 17.1163 110.675 17.219 111.064 17.219ZM118.751 11.059C118.553 11.059 118.388 10.993 118.256 10.861C118.131 10.729 118.069 10.5713 118.069 10.388C118.069 10.1973 118.131 10.036 118.256 9.904C118.388 9.772 118.553 9.706 118.751 9.706C118.941 9.706 119.103 9.772 119.235 9.904C119.367 10.036 119.433 10.1973 119.433 10.388C119.433 10.5713 119.367 10.729 119.235 10.861C119.103 10.993 118.941 11.059 118.751 11.059ZM118.234 18V12.17H119.279V18H118.234ZM120.969 18V12.17H122.014V13.017H122.08C122.132 12.929 122.216 12.808 122.333 12.654C122.458 12.5 122.634 12.3643 122.861 12.247C123.089 12.1223 123.375 12.06 123.719 12.06C124.145 12.06 124.508 12.159 124.808 12.357C125.109 12.5477 125.336 12.808 125.49 13.138C125.652 13.468 125.732 13.8383 125.732 14.249V18H124.687V14.315C124.687 13.9263 124.577 13.6037 124.357 13.347C124.145 13.0903 123.833 12.962 123.422 12.962C123.092 12.962 122.825 13.0463 122.619 13.215C122.414 13.3763 122.26 13.5927 122.157 13.864C122.062 14.128 122.014 14.4103 122.014 14.711V18H120.969Z" fill="white"/>
<path d="M60.56 35L64.172 24.64H66.272L69.898 35H68.176L67.378 32.676H63.08L62.282 35H60.56ZM63.57 31.22H66.888L65.236 26.39L63.57 31.22ZM71.523 37.744V27.58H73.119V28.686H73.203C73.2963 28.546 73.4317 28.378 73.609 28.182C73.7957 27.986 74.043 27.8133 74.351 27.664C74.6683 27.5147 75.065 27.44 75.541 27.44C76.0917 27.44 76.577 27.552 76.997 27.776C77.417 27.9907 77.7623 28.2847 78.033 28.658C78.313 29.022 78.5183 29.4327 78.649 29.89C78.789 30.3473 78.859 30.814 78.859 31.29C78.859 31.766 78.789 32.2327 78.649 32.69C78.5183 33.1473 78.313 33.5627 78.033 33.936C77.7623 34.3 77.417 34.594 76.997 34.818C76.577 35.0327 76.0917 35.14 75.541 35.14C75.065 35.14 74.6683 35.0653 74.351 34.916C74.043 34.7667 73.7957 34.594 73.609 34.398C73.4317 34.202 73.2963 34.034 73.203 33.894H73.119V37.744H71.523ZM73.119 31.29C73.119 31.71 73.1937 32.1113 73.343 32.494C73.5017 32.8767 73.7303 33.194 74.029 33.446C74.337 33.6887 74.7197 33.81 75.177 33.81C75.6437 33.81 76.0263 33.6887 76.325 33.446C76.633 33.194 76.8617 32.8767 77.011 32.494C77.1697 32.1113 77.249 31.71 77.249 31.29C77.249 30.87 77.1697 30.4687 77.011 30.086C76.8617 29.7033 76.633 29.3907 76.325 29.148C76.0263 28.896 75.6437 28.77 75.177 28.77C74.7197 28.77 74.337 28.896 74.029 29.148C73.7303 29.3907 73.5017 29.7033 73.343 30.086C73.1937 30.4687 73.119 30.87 73.119 31.29ZM80.6968 37.744V27.58H82.2928V28.686H82.3768C82.4701 28.546 82.6055 28.378 82.7828 28.182C82.9695 27.986 83.2168 27.8133 83.5248 27.664C83.8421 27.5147 84.2388 27.44 84.7148 27.44C85.2655 27.44 85.7508 27.552 86.1708 27.776C86.5908 27.9907 86.9361 28.2847 87.2068 28.658C87.4868 29.022 87.6921 29.4327 87.8228 29.89C87.9628 30.3473 88.0328 30.814 88.0328 31.29C88.0328 31.766 87.9628 32.2327 87.8228 32.69C87.6921 33.1473 87.4868 33.5627 87.2068 33.936C86.9361 34.3 86.5908 34.594 86.1708 34.818C85.7508 35.0327 85.2655 35.14 84.7148 35.14C84.2388 35.14 83.8421 35.0653 83.5248 34.916C83.2168 34.7667 82.9695 34.594 82.7828 34.398C82.6055 34.202 82.4701 34.034 82.3768 33.894H82.2928V37.744H80.6968ZM82.2928 31.29C82.2928 31.71 82.3675 32.1113 82.5168 32.494C82.6755 32.8767 82.9041 33.194 83.2028 33.446C83.5108 33.6887 83.8935 33.81 84.3508 33.81C84.8175 33.81 85.2001 33.6887 85.4988 33.446C85.8068 33.194 86.0355 32.8767 86.1848 32.494C86.3435 32.1113 86.4228 31.71 86.4228 31.29C86.4228 30.87 86.3435 30.4687 86.1848 30.086C86.0355 29.7033 85.8068 29.3907 85.4988 29.148C85.2001 28.896 84.8175 28.77 84.3508 28.77C83.8935 28.77 83.5108 28.896 83.2028 29.148C82.9041 29.3907 82.6755 29.7033 82.5168 30.086C82.3675 30.4687 82.2928 30.87 82.2928 31.29ZM96.7225 35.14C96.1065 35.14 95.5745 35.0607 95.1265 34.902C94.6879 34.7433 94.3239 34.5427 94.0345 34.3C93.7452 34.048 93.5119 33.782 93.3345 33.502C93.1665 33.222 93.0405 32.9607 92.9565 32.718C92.8725 32.466 92.8165 32.2607 92.7885 32.102C92.7605 31.9433 92.7465 31.864 92.7465 31.864H94.4125C94.4125 31.864 94.4265 31.9293 94.4545 32.06C94.4825 32.1813 94.5385 32.3353 94.6225 32.522C94.7065 32.6993 94.8325 32.8813 95.0005 33.068C95.1779 33.2453 95.4065 33.3993 95.6865 33.53C95.9759 33.6513 96.3399 33.712 96.7785 33.712C97.4319 33.712 97.9405 33.558 98.3045 33.25C98.6779 32.942 98.8645 32.55 98.8645 32.074C98.8645 31.6633 98.7245 31.346 98.4445 31.122C98.1739 30.8887 97.7725 30.7113 97.2405 30.59L95.8685 30.268C95.3552 30.156 94.8792 29.9927 94.4405 29.778C94.0112 29.554 93.6612 29.2553 93.3905 28.882C93.1292 28.5087 92.9985 28.0373 92.9985 27.468C92.9985 26.852 93.1479 26.3247 93.4465 25.886C93.7545 25.438 94.1745 25.0973 94.7065 24.864C95.2479 24.6213 95.8639 24.5 96.5545 24.5C97.2265 24.5 97.7819 24.6027 98.2205 24.808C98.6592 25.004 99.0092 25.2467 99.2705 25.536C99.5319 25.8253 99.7232 26.1193 99.8445 26.418C99.9752 26.7073 100.059 26.9547 100.097 27.16C100.134 27.356 100.153 27.454 100.153 27.454H98.5565C98.5565 27.454 98.5379 27.3793 98.5005 27.23C98.4632 27.0713 98.3745 26.8893 98.2345 26.684C98.1039 26.4787 97.8985 26.3013 97.6185 26.152C97.3479 25.9933 96.9792 25.914 96.5125 25.914C95.8685 25.914 95.3879 26.0633 95.0705 26.362C94.7532 26.6607 94.5945 26.992 94.5945 27.356C94.5945 27.7107 94.7299 27.9953 95.0005 28.21C95.2712 28.4153 95.6352 28.5693 96.0925 28.672L97.5625 29.022C98.1039 29.1433 98.5939 29.3253 99.0325 29.568C99.4805 29.8107 99.8352 30.1327 100.097 30.534C100.358 30.926 100.489 31.4067 100.489 31.976C100.489 32.5547 100.344 33.0867 100.055 33.572C99.7745 34.048 99.3545 34.4307 98.7945 34.72C98.2345 35 97.5439 35.14 96.7225 35.14ZM105.256 35.14C104.668 35.14 104.197 35.0327 103.842 34.818C103.487 34.6033 103.231 34.3187 103.072 33.964C102.923 33.6 102.848 33.208 102.848 32.788V28.868H101.546V27.58H102.848V25.732H104.444V27.58H106.18V28.868H104.444V32.76C104.444 33.46 104.831 33.81 105.606 33.81C105.802 33.81 105.984 33.796 106.152 33.768C106.32 33.74 106.404 33.726 106.404 33.726V35.028C106.404 35.028 106.287 35.0467 106.054 35.084C105.83 35.1213 105.564 35.14 105.256 35.14ZM111.431 35.14C110.619 35.14 109.933 34.958 109.373 34.594C108.822 34.23 108.402 33.754 108.113 33.166C107.833 32.578 107.693 31.9527 107.693 31.29C107.693 30.6273 107.833 30.002 108.113 29.414C108.402 28.826 108.822 28.35 109.373 27.986C109.933 27.622 110.619 27.44 111.431 27.44C112.233 27.44 112.91 27.622 113.461 27.986C114.021 28.35 114.441 28.826 114.721 29.414C115.01 30.002 115.155 30.6273 115.155 31.29C115.155 31.9527 115.01 32.578 114.721 33.166C114.441 33.754 114.021 34.23 113.461 34.594C112.91 34.958 112.233 35.14 111.431 35.14ZM111.431 33.782C111.888 33.782 112.271 33.6653 112.579 33.432C112.896 33.1987 113.134 32.8907 113.293 32.508C113.461 32.1253 113.545 31.7193 113.545 31.29C113.545 30.8513 113.461 30.4453 113.293 30.072C113.134 29.6893 112.896 29.3813 112.579 29.148C112.271 28.9147 111.888 28.798 111.431 28.798C110.973 28.798 110.586 28.9147 110.269 29.148C109.951 29.3813 109.713 29.6893 109.555 30.072C109.396 30.4453 109.317 30.8513 109.317 31.29C109.317 31.7193 109.396 32.1253 109.555 32.508C109.713 32.8907 109.951 33.1987 110.269 33.432C110.586 33.6653 110.973 33.782 111.431 33.782ZM116.883 35V27.58H118.479V28.56H118.535C118.675 28.2707 118.894 28.014 119.193 27.79C119.501 27.5567 119.944 27.44 120.523 27.44C120.7 27.44 120.85 27.4493 120.971 27.468C121.102 27.4867 121.167 27.496 121.167 27.496V29.036C121.167 29.036 121.097 29.0267 120.957 29.008C120.817 28.9893 120.658 28.98 120.481 28.98C119.828 28.98 119.328 29.1667 118.983 29.54C118.647 29.904 118.479 30.4967 118.479 31.318V35H116.883ZM125.551 35.14C124.925 35.14 124.384 35.0327 123.927 34.818C123.479 34.594 123.105 34.3 122.807 33.936C122.517 33.5627 122.298 33.1473 122.149 32.69C122.009 32.2327 121.939 31.766 121.939 31.29C121.939 30.8233 122.009 30.3613 122.149 29.904C122.289 29.4467 122.503 29.0313 122.793 28.658C123.082 28.2847 123.451 27.9907 123.899 27.776C124.347 27.552 124.874 27.44 125.481 27.44C126.134 27.44 126.708 27.5893 127.203 27.888C127.707 28.1773 128.099 28.6113 128.379 29.19C128.668 29.7593 128.813 30.4687 128.813 31.318V31.752H123.549C123.586 32.3213 123.777 32.8113 124.123 33.222C124.468 33.6327 124.944 33.838 125.551 33.838C125.896 33.838 126.181 33.782 126.405 33.67C126.629 33.5487 126.801 33.4133 126.923 33.264C127.044 33.1147 127.128 32.984 127.175 32.872C127.231 32.76 127.259 32.704 127.259 32.704H128.743C128.743 32.704 128.719 32.788 128.673 32.956C128.626 33.1147 128.537 33.3153 128.407 33.558C128.285 33.8007 128.108 34.0433 127.875 34.286C127.641 34.5287 127.333 34.734 126.951 34.902C126.568 35.0607 126.101 35.14 125.551 35.14ZM123.563 30.632H127.273C127.235 29.9787 127.039 29.498 126.685 29.19C126.339 28.882 125.933 28.728 125.467 28.728C124.944 28.728 124.51 28.9007 124.165 29.246C123.819 29.582 123.619 30.044 123.563 30.632Z" fill="white"/>
<defs>
<linearGradient id="paint0_linear_1386_26647" x1="36.041" y1="20.5272" x2="36.2262" y2="35.0972" gradientUnits="userSpaceOnUse">
<stop stop-color="white"/>
<stop offset="1" stop-color="#F2F2F2"/>
</linearGradient>
<linearGradient id="paint1_linear_1386_26647" x1="38.9982" y1="9.43717" x2="39.0664" y2="13.8641" gradientUnits="userSpaceOnUse">
<stop stop-color="white"/>
<stop offset="1" stop-color="#F2F2F2"/>
</linearGradient>
</defs>
</svg>
