<svg width="28" height="28" viewBox="0 0 28 28" fill="none" xmlns="http://www.w3.org/2000/svg">
<circle cx="14" cy="14" r="14" fill="#6D79E8"/>
<g clip-path="url(#clip0_1386_26611)">
<rect x="6.5332" y="5.59961" width="14.9333" height="14.9333" fill="white"/>
<path d="M22.0239 3.7334H6.90867C6.56149 3.7334 6.22852 3.87858 5.98303 4.13699C5.73753 4.39541 5.59961 4.7459 5.59961 5.11136V21.0221C5.59961 21.3876 5.73753 21.7381 5.98303 21.9965C6.22852 22.2549 6.56149 22.4001 6.90867 22.4001H22.0239C22.3711 22.4001 22.704 22.2549 22.9495 21.9965C23.195 21.7381 23.3329 21.3876 23.3329 21.0221V5.11136C23.3329 4.7459 23.195 4.39541 22.9495 4.13699C22.704 3.87858 22.3711 3.7334 22.0239 3.7334ZM10.8851 19.6351H8.21897V10.7204H10.8851V19.6351ZM9.5502 9.48506C9.24777 9.48327 8.95262 9.38722 8.70201 9.20902C8.45139 9.03083 8.25654 8.77848 8.14204 8.48382C8.02754 8.18917 7.99852 7.86541 8.05865 7.55342C8.11879 7.24142 8.26537 6.95517 8.47991 6.73078C8.69445 6.5064 8.96733 6.35394 9.2641 6.29265C9.56088 6.23135 9.86825 6.26397 10.1474 6.38639C10.4266 6.5088 10.6651 6.71553 10.8328 6.98047C11.0004 7.24542 11.0898 7.55671 11.0896 7.87507C11.0924 8.0882 11.0545 8.29976 10.978 8.49714C10.9015 8.69451 10.7881 8.87365 10.6444 9.02389C10.5008 9.17414 10.3299 9.2924 10.1419 9.37163C9.95388 9.45086 9.75266 9.48944 9.5502 9.48506ZM20.7124 19.6428H18.0474V14.7727C18.0474 13.3364 17.4674 12.893 16.7187 12.893C15.928 12.893 15.1522 13.5204 15.1522 14.809V19.6428H12.4861V10.7269H15.05V11.9623H15.0845C15.3419 11.414 16.2433 10.4767 17.6189 10.4767C19.1065 10.4767 20.7136 11.4062 20.7136 14.1284L20.7124 19.6428Z" fill="#6D79E8"/>
</g>
<defs>
<clipPath id="clip0_1386_26611">
<rect width="17.7333" height="20.5333" fill="white" transform="translate(4.6665 3.7334)"/>
</clipPath>
</defs>
</svg>
