<svg width="18" height="18" viewBox="0 0 18 18" fill="none" xmlns="http://www.w3.org/2000/svg">
<path d="M15.75 7.49996H16.5C16.5 7.27223 16.3965 7.05683 16.2188 6.91449L15.75 7.49996ZM2.25 7.49996L1.79764 6.90174C1.61017 7.04349 1.5 7.26493 1.5 7.49996H2.25ZM8.72734 2.60197L9.1797 3.2002L9.1797 3.2002L8.72734 2.60197ZM9.64845 2.61473L10.1172 2.02927L10.1172 2.02927L9.64845 2.61473ZM15 7.49996V15H16.5V7.49996H15ZM15 15H3V16.5H15V15ZM3 15V7.49996H1.5V15H3ZM2.70236 8.09818L9.1797 3.2002L8.27498 2.00375L1.79764 6.90174L2.70236 8.09818ZM9.1797 3.2002L15.2812 8.08542L16.2188 6.91449L10.1172 2.02927L9.1797 3.2002ZM9.1797 3.2002V3.2002L10.1172 2.02927C9.58132 1.60021 8.82254 1.58969 8.27498 2.00375L9.1797 3.2002ZM3 15H3H1.5C1.5 15.8284 2.17157 16.5 3 16.5V15ZM15 15V16.5C15.8284 16.5 16.5 15.8284 16.5 15H15Z" fill="#E7E7EC"/>
<path d="M2.25 7.5L9.19286 12L15.75 7.5" stroke="white" stroke-width="1.5" stroke-linecap="round" stroke-linejoin="round"/>
</svg>
