<svg width="28" height="28" viewBox="0 0 28 28" fill="none" xmlns="http://www.w3.org/2000/svg">
<circle cx="14" cy="14" r="14" fill="#6D79E8"/>
<path d="M18.0258 11.4057C19.2262 12.2668 20.6967 12.7735 22.2849 12.7735V9.70635C21.9844 9.70641 21.6846 9.67495 21.3905 9.61243V12.0267C19.8024 12.0267 18.332 11.52 17.1313 10.659V16.9181C17.1313 20.0492 14.6021 22.5874 11.4822 22.5874C10.3182 22.5874 9.23619 22.2342 8.3374 21.6285C9.36322 22.6811 10.7938 23.3341 12.3765 23.3341C15.4965 23.3341 18.0259 20.796 18.0259 17.6647V11.4057H18.0258ZM19.1292 8.31131C18.5157 7.63871 18.1129 6.76951 18.0258 5.80856V5.41406H17.1782C17.3915 6.63542 18.1193 7.67888 19.1292 8.31131ZM10.3107 19.2257C9.96795 18.7747 9.78273 18.223 9.78356 17.6557C9.78356 16.2237 10.9404 15.0625 12.3677 15.0625C12.6337 15.0625 12.8981 15.1033 13.1516 15.184V12.0484C12.8553 12.0076 12.5564 11.9903 12.2575 11.9967V14.4373C12.0038 14.3566 11.7393 14.3156 11.4732 14.3159C10.046 14.3159 8.88917 15.4769 8.88917 16.9091C8.88917 17.9218 9.46741 18.7986 10.3107 19.2257Z" fill="#918FFD"/>
<path d="M17.1315 10.6589C18.3322 11.52 19.8026 12.0266 21.3907 12.0266V9.61236C20.5042 9.42287 19.7194 8.95796 19.1294 8.31131C18.1194 7.67882 17.3917 6.63536 17.1784 5.41406H14.9519V17.6646C14.9469 19.0927 13.792 20.2491 12.3678 20.2491C11.5285 20.2491 10.7829 19.8476 10.3107 19.2257C9.46748 18.7986 8.88924 17.9218 8.88924 16.9092C8.88924 15.4771 10.046 14.3159 11.4733 14.3159C11.7468 14.3159 12.0103 14.3587 12.2576 14.4374V11.9967C9.19256 12.0603 6.72754 14.5736 6.72754 17.6646C6.72754 19.2077 7.34139 20.6065 8.33766 21.6285C9.23645 22.2342 10.3184 22.5874 11.4825 22.5874C14.6024 22.5874 17.1316 20.0492 17.1316 16.9181V10.6589H17.1315Z" fill="white"/>
<path d="M21.3905 9.61195V8.95915C20.5912 8.96036 19.8075 8.73569 19.1292 8.31083C19.7296 8.97049 20.5202 9.42533 21.3905 9.61195ZM17.1782 5.41365C17.1579 5.29692 17.1422 5.17943 17.1314 5.06149V4.66699H14.0572V16.9176C14.0523 18.3456 12.8975 19.502 11.4732 19.502C11.055 19.502 10.6602 19.4024 10.3106 19.2254C10.7828 19.8472 11.5284 20.2486 12.3676 20.2486C13.7917 20.2486 14.9468 19.0924 14.9518 17.6642V5.41365H17.1782ZM12.2576 11.9963V11.3014C12.0007 11.2661 11.7417 11.2484 11.4824 11.2486C8.36228 11.2485 5.83301 13.7867 5.83301 16.9176C5.83301 18.8805 6.82705 20.6104 8.33758 21.628C7.3413 20.606 6.72746 19.2071 6.72746 17.6641C6.72746 14.5732 9.19241 12.0599 12.2576 11.9963Z" fill="#918FFD"/>
</svg>
