<svg width="28" height="28" viewBox="0 0 28 28" fill="none" xmlns="http://www.w3.org/2000/svg">
<circle cx="14" cy="14" r="14" fill="#6D79E8"/>
<g clip-path="url(#clip0_1386_26613)">
<path d="M11.8165 21.7583C18.1561 21.7583 21.6236 16.5059 21.6236 11.9511C21.6236 11.8019 21.6236 11.6534 21.6136 11.5056C22.2881 11.0177 22.8704 10.4135 23.3332 9.72143C22.7042 10.0003 22.0368 10.1831 21.3535 10.2637C22.0731 9.83302 22.6116 9.15548 22.8689 8.35727C22.1923 8.7588 21.452 9.04175 20.6801 9.19391C20.1605 8.64132 19.4731 8.2754 18.7245 8.15279C17.9759 8.03018 17.2078 8.15771 16.539 8.51565C15.8702 8.87359 15.338 9.44197 15.0247 10.1329C14.7115 10.8237 14.6347 11.5986 14.8062 12.3375C13.4358 12.2688 12.0952 11.9126 10.8714 11.2922C9.64761 10.6718 8.56794 9.80099 7.70248 8.73628C7.26171 9.49508 7.12671 10.3933 7.32497 11.2482C7.52323 12.103 8.03984 12.8501 8.76962 13.3375C8.22107 13.3214 7.68446 13.1734 7.2052 12.906V12.9497C7.20542 13.7455 7.4809 14.5167 7.98491 15.1326C8.48893 15.7484 9.19045 16.171 9.97048 16.3285C9.46304 16.467 8.93062 16.4872 8.41413 16.3877C8.63447 17.0725 9.0633 17.6714 9.64067 18.1005C10.218 18.5297 10.9151 18.7677 11.6344 18.7813C10.9197 19.3431 10.1013 19.7584 9.22602 20.0035C8.35071 20.2487 7.43565 20.3188 6.5332 20.21C8.10949 21.2215 9.94355 21.7581 11.8165 21.7556" fill="white"/>
</g>
<defs>
<clipPath id="clip0_1386_26613">
<rect width="16.8" height="16.8" fill="white" transform="translate(6.5332 6.5332)"/>
</clipPath>
</defs>
</svg>
