<svg width="64" height="64" viewBox="0 0 64 64" fill="none" xmlns="http://www.w3.org/2000/svg">
<circle cx="32" cy="32" r="32" fill="#4057D0"/>
<g clip-path="url(#clip0_1381_23686)">
<path d="M50 30.8744C50 31.6252 50 32.3744 50 33.1253C49.9714 33.3559 49.9397 33.5866 49.9143 33.8172C49.5015 37.6048 48.0757 40.9612 45.5623 43.8277C42.7695 47.0108 39.2765 48.9865 35.1008 49.7278C34.4467 49.8439 33.7846 49.9107 33.1257 50.0014C32.3763 50.0014 31.6253 50.0014 30.8759 50.0014C30.7981 49.9823 30.7203 49.9521 30.6409 49.9457C27.5417 49.7135 24.679 48.7638 22.1037 47.0283C17.8439 44.1602 15.221 40.1945 14.2794 35.1359C14.1556 34.471 14.0921 33.795 14 33.1237C14 32.3728 14 31.6236 14 30.8728C14.0206 30.7582 14.046 30.6453 14.0635 30.5308C14.1969 29.6654 14.2699 28.7841 14.4716 27.9347C16.8293 17.9432 26.8209 11.9812 36.7393 14.6281C43.4094 16.4082 48.606 22.1142 49.7269 28.8955C49.8349 29.5525 49.9095 30.2142 50 30.8744ZM20.8304 21.7292C15.7719 27.152 15.3575 35.7754 20.335 41.7216C25.5142 47.908 33.8052 48.4441 39.2543 45.3167C39.1654 45.156 39.0765 44.9953 38.9891 44.8331C38.5208 43.963 38.1477 43.0578 37.946 42.0875C37.5205 40.045 38.1397 38.4781 39.8576 37.3073C40.1958 37.0766 40.5515 36.8699 40.9103 36.6758C41.6518 36.2765 42.4075 35.9011 43.1506 35.5034C44.6414 34.7049 45.991 33.7266 47.0103 32.3522C47.1119 32.2153 47.1834 32.0149 47.1802 31.8463C47.1278 28.2894 45.9862 25.1238 43.7396 22.3623C43.6761 22.2844 43.6443 22.181 43.5983 22.0903C42.8902 24.1678 41.6851 25.7347 40.0593 26.9866C39.2813 27.5863 38.4509 28.1192 37.6571 28.6998C36.7012 29.3997 36.7632 29.2582 37.3776 30.2412C37.719 30.7869 38.1127 31.3054 38.3969 31.8781C39.1622 33.4164 38.6938 35.0946 37.2585 36.0379C36.4409 36.5756 35.5295 36.8635 34.5515 36.9208C32.8732 37.021 31.3935 36.4515 30.0519 35.5034C27.7862 33.9031 26.1874 31.7445 24.9585 29.2916C24.3202 28.0174 23.8216 26.6939 23.7153 25.2575C23.6629 24.5289 23.4088 23.8942 22.9548 23.3311C22.3832 22.6232 21.6481 22.1348 20.8304 21.7292ZM23.05 19.7296C23.185 19.8235 23.2913 19.8967 23.3961 19.9698C24.8251 20.9609 25.927 22.2032 26.3461 23.934C26.4938 24.5448 26.4779 25.1986 26.643 25.8031C27.394 28.5598 28.9198 30.8378 31.0442 32.726C31.6428 33.2589 32.3207 33.6756 33.0876 33.9333C33.8862 34.2006 34.6753 34.1942 35.4469 33.8331C35.9852 33.5802 36.055 33.3814 35.7565 32.8835C35.5581 32.5526 35.3152 32.2472 35.1215 31.9147C34.8325 31.4216 34.5118 30.9364 34.3054 30.4067C33.8719 29.2916 34.0863 28.2592 34.8976 27.3795C35.1961 27.055 35.5406 26.7623 35.8979 26.5014C36.6441 25.9558 37.4268 25.4579 38.1715 24.9107C39.7163 23.7733 40.7118 22.2828 41.0452 20.3691C41.1072 20.0112 41.0627 19.7821 40.7325 19.5563C37.2665 17.1908 33.4639 16.3573 29.3358 17.0477C27.0479 17.4294 24.968 18.3314 23.05 19.7296ZM46.3752 36.9176C45.0257 37.6461 43.6872 38.3636 42.3551 39.0905C41.9868 39.2925 41.6279 39.5152 41.2755 39.7459C40.8023 40.0529 40.5912 40.4904 40.6356 41.0614C40.7134 42.0413 41.1278 42.894 41.6073 43.7641C43.8539 41.8918 45.4464 39.6186 46.3752 36.9176Z" fill="white"/>
</g>
<defs>
<clipPath id="clip0_1381_23686">
<rect width="36" height="36" fill="white" transform="translate(14 14)"/>
</clipPath>
</defs>
</svg>
