<svg width="28" height="28" viewBox="0 0 28 28" fill="none" xmlns="http://www.w3.org/2000/svg">
<circle cx="14" cy="14" r="14" fill="#6D79E8"/>
<g clip-path="url(#clip0_1386_26612)">
<path d="M22.0654 9.92905C21.9704 9.57164 21.7833 9.24545 21.5226 8.98311C21.2619 8.72078 20.9369 8.53151 20.5802 8.43424C19.2667 8.08105 14.0167 8.08105 14.0167 8.08105C14.0167 8.08105 8.7667 8.08105 7.45324 8.43424C7.09645 8.53151 6.77146 8.72078 6.5108 8.98311C6.25014 9.24545 6.06295 9.57164 5.96797 9.92905C5.6167 11.2482 5.6167 13.9992 5.6167 13.9992C5.6167 13.9992 5.6167 16.7502 5.96797 18.0694C6.06295 18.4268 6.25014 18.753 6.5108 19.0154C6.77146 19.2777 7.09645 19.467 7.45324 19.5642C8.7667 19.9174 14.0167 19.9174 14.0167 19.9174C14.0167 19.9174 19.2667 19.9174 20.5802 19.5642C20.9369 19.467 21.2619 19.2777 21.5226 19.0154C21.7833 18.753 21.9704 18.4268 22.0654 18.0694C22.4167 16.7502 22.4167 13.9992 22.4167 13.9992C22.4167 13.9992 22.4167 11.2482 22.0654 9.92905Z" fill="white"/>
<path d="M12.2988 16.498V11.502L16.6897 14L12.2988 16.498Z" fill="#6D79E8"/>
</g>
<defs>
<clipPath id="clip0_1386_26612">
<rect width="16.8" height="16.8" fill="white" transform="translate(5.6001 5.59961)"/>
</clipPath>
</defs>
</svg>
